<?xml version="1.0" encoding="iso-8859-1"?>
<!-- Generator: Adobe Illustrator 19.0.0, SVG Export Plug-In . SVG Version: 6.00 Build 0)  -->
<svg version="1.1" id="Layer_1" xmlns="http://www.w3.org/2000/svg" xmlns:xlink="http://www.w3.org/1999/xlink" x="0px" y="0px"
	 viewBox="0 0 512 512" style="enable-background:new 0 0 512 512;" xml:space="preserve">
<circle style="fill:#273B7A;" cx="256" cy="256" r="256"/>
<path style="fill:#121149;" d="M507.704,302.866L347.06,142.222L157.163,350.241l0.865,0.865l-27.012,22.981l50.143,50.143
	l-15.389,5.965l81.646,81.646c2.851,0.093,5.708,0.159,8.582,0.159C381.375,512,485.686,421.867,507.704,302.866z"/>
<path style="fill:#FF5419;" d="M347.057,424.76l-28.444-85.333c-0.822-2.465-3.125-4.127-5.723-4.127H199.111
	c-2.598,0-4.903,1.662-5.723,4.127l-28.444,85.333c-0.612,1.839-0.305,3.862,0.829,5.435c1.133,1.572,2.955,2.505,4.894,2.505
	h170.667c1.939,0,3.762-0.933,4.894-2.505C347.362,428.622,347.669,426.599,347.057,424.76z M203.459,347.367h105.081l13.215,39.65
	H190.242L203.459,347.367z M179.038,420.633l7.184-21.549h139.557l7.184,21.549H179.038z"/>
<path style="fill:#C92F00;" d="M347.057,424.76l-28.444-85.333c-0.822-2.465-3.125-4.127-5.723-4.127h-56.887v12.067h52.538
	l13.215,39.65H256v12.067h69.777l7.184,21.549h-76.959V432.7h85.332c1.939,0,3.762-0.933,4.894-2.505
	C347.362,428.622,347.669,426.599,347.057,424.76z"/>
<path style="fill:#859BAA;" d="M380.983,374.088H131.017l26.607-212.842c2.65-21.209,20.68-37.124,42.053-37.124h112.649
	c21.373,0,39.403,15.915,42.055,37.124L380.983,374.088z"/>
<path style="fill:#5E7D96;" d="M354.378,161.246c-2.651-21.209-20.68-37.124-42.053-37.124h-56.323v249.966h124.981L354.378,161.246
	z"/>
<polygon style="fill:#FFC61B;" points="356.997,182.194 155.005,182.194 140.012,302.128 371.99,302.128 "/>
<polygon style="fill:#EAA22F;" points="356.997,182.194 256.002,182.194 256.002,302.128 371.99,302.128 "/>
<circle style="fill:#FFC61B;" cx="177.89" cy="327.215" r="15.619"/>
<circle style="fill:#EAA22F;" cx="334.11" cy="327.215" r="15.619"/>
<path style="fill:#273B7A;" d="M287.246,161.401h-62.493c-3.332,0-6.034-2.701-6.034-6.034s2.701-6.034,6.034-6.034h62.493
	c3.332,0,6.034,2.701,6.034,6.034S290.578,161.401,287.246,161.401z"/>
<path style="fill:#121149;" d="M287.246,149.333H256v12.067h31.246c3.332,0,6.034-2.701,6.034-6.034
	S290.578,149.333,287.246,149.333z"/>
<g>
</g>
<g>
</g>
<g>
</g>
<g>
</g>
<g>
</g>
<g>
</g>
<g>
</g>
<g>
</g>
<g>
</g>
<g>
</g>
<g>
</g>
<g>
</g>
<g>
</g>
<g>
</g>
<g>
</g>
</svg>
